<svg width="79" height="69" viewBox="0 0 79 69" fill="none" xmlns="http://www.w3.org/2000/svg">
<g clip-path="url(#clip0)">
<path d="M35.8327 11.0353C37.1906 11.0353 38.2914 9.93134 38.2914 8.56955C38.2914 7.20777 37.1906 6.10382 35.8327 6.10382C34.4748 6.10382 33.374 7.20777 33.374 8.56955C33.374 9.93134 34.4748 11.0353 35.8327 11.0353Z" fill="#17A45E"/>
<path d="M39.9435 6.91229C41.3014 6.91229 42.4022 5.80835 42.4022 4.44656C42.4022 3.08478 41.3014 1.98083 39.9435 1.98083C38.5857 1.98083 37.4849 3.08478 37.4849 4.44656C37.4849 5.80835 38.5857 6.91229 39.9435 6.91229Z" fill="#17A45E"/>
<path d="M31.6813 15.1984C33.0392 15.1984 34.14 14.0945 34.14 12.7327C34.14 11.3709 33.0392 10.267 31.6813 10.267C30.3234 10.267 29.2227 11.3709 29.2227 12.7327C29.2227 14.0945 30.3234 15.1984 31.6813 15.1984Z" fill="#17A45E"/>
<path d="M35.8327 47.4955C34.4623 47.4955 33.374 48.6274 33.374 49.9613C33.374 51.3356 34.5026 52.427 35.8327 52.427C37.2031 52.427 38.2914 51.2952 38.2914 49.9613C38.2914 48.5869 37.2031 47.4955 35.8327 47.4955Z" fill="#17A45E"/>
<path d="M48.766 23.3739C50.0874 23.0609 50.9058 21.7329 50.5937 20.4076C50.2817 19.0823 48.9574 18.2616 47.6359 18.5746C46.3144 18.8875 45.4961 20.2156 45.8082 21.5409C46.1202 22.8661 47.4445 23.6868 48.766 23.3739Z" fill="#17A45E"/>
<path d="M52.7137 27.5772C54.0541 27.359 54.9644 26.0925 54.7468 24.7482C54.5293 23.404 53.2664 22.4912 51.926 22.7093C50.5856 22.9275 49.6754 24.194 49.8929 25.5383C50.1104 26.8825 51.3734 27.7953 52.7137 27.5772Z" fill="#17A45E"/>
<path d="M58.1216 49.9613C58.1216 51.3356 59.2502 52.427 60.5803 52.427C61.9507 52.427 63.0389 51.2952 63.0389 49.9613C63.0389 48.5869 61.9104 47.4955 60.5803 47.4955C59.2098 47.4955 58.1216 48.5869 58.1216 49.9613Z" fill="#17A45E"/>
<path d="M44.0554 11.0353C45.4132 11.0353 46.514 9.93134 46.514 8.56955C46.514 7.20777 45.4132 6.10382 44.0554 6.10382C42.6975 6.10382 41.5967 7.20777 41.5967 8.56955C41.5967 9.93134 42.6975 11.0353 44.0554 11.0353Z" fill="#17A45E"/>
<path d="M31.6813 23.4448C33.0392 23.4448 34.14 22.3408 34.14 20.979C34.14 19.6173 33.0392 18.5133 31.6813 18.5133C30.3234 18.5133 29.2227 19.6173 29.2227 20.979C29.2227 22.3408 30.3234 23.4448 31.6813 23.4448Z" fill="#17A45E"/>
<path d="M29.8425 26.0747C30.3621 24.8165 29.7664 23.3741 28.5118 22.8529C27.2573 22.3318 25.819 22.9292 25.2993 24.1874C24.7797 25.4455 25.3754 26.888 26.63 27.4091C27.8845 27.9303 29.3228 27.3328 29.8425 26.0747Z" fill="#17A45E"/>
<path d="M23.4186 48.304C24.7765 48.304 25.8773 47.2001 25.8773 45.8383C25.8773 44.4765 24.7765 43.3726 23.4186 43.3726C22.0607 43.3726 20.96 44.4765 20.96 45.8383C20.96 47.2001 22.0607 48.304 23.4186 48.304Z" fill="#17A45E"/>
<path d="M27.5695 47.4955C26.1991 47.4955 25.1108 48.6274 25.1108 49.9613C25.1108 51.3356 26.2394 52.427 27.5695 52.427C28.9399 52.427 30.0282 51.2952 30.0282 49.9613C30.0282 48.5869 28.9399 47.4955 27.5695 47.4955Z" fill="#17A45E"/>
<path d="M31.6813 48.304C33.0392 48.304 34.14 47.2001 34.14 45.8383C34.14 44.4765 33.0392 43.3726 31.6813 43.3726C30.3234 43.3726 29.2227 44.4765 29.2227 45.8383C29.2227 47.2001 30.3234 48.304 31.6813 48.304Z" fill="#17A45E"/>
<path d="M39.9435 48.304C41.3014 48.304 42.4022 47.2001 42.4022 45.8383C42.4022 44.4765 41.3014 43.3726 39.9435 43.3726C38.5857 43.3726 37.4849 44.4765 37.4849 45.8383C37.4849 47.2001 38.5857 48.304 39.9435 48.304Z" fill="#17A45E"/>
<path d="M27.5701 35.8945C28.9405 35.8945 30.0287 34.7627 30.0287 33.4288C30.0287 32.0544 28.9002 30.963 27.5701 30.963C26.1997 30.963 25.1114 32.0949 25.1114 33.4288C25.0711 34.8031 26.1997 35.8945 27.5701 35.8945Z" fill="#17A45E"/>
<path d="M19.3068 47.4955C17.9364 47.4955 16.8481 48.6274 16.8481 49.9613C16.8481 51.3356 17.9767 52.427 19.3068 52.427C20.6772 52.427 21.7655 51.2952 21.7655 49.9613C21.7655 48.5869 20.6772 47.4955 19.3068 47.4955Z" fill="#17A45E"/>
<path d="M23.4186 40.0174C24.7765 40.0174 25.8773 38.9135 25.8773 37.5517C25.8773 36.1899 24.7765 35.086 23.4186 35.086C22.0607 35.086 20.96 36.1899 20.96 37.5517C20.96 38.9135 22.0607 40.0174 23.4186 40.0174Z" fill="#17A45E"/>
<path d="M41.5967 41.6749C41.5967 43.0492 42.7253 44.1406 44.0554 44.1406C45.4258 44.1406 46.514 43.0088 46.514 41.6749H41.5967Z" fill="#17A45E"/>
<path d="M35.8327 22.6363C34.4623 22.6363 33.374 23.7681 33.374 25.102C33.374 26.4764 34.5026 27.5677 35.8327 27.5677C35.9133 27.5677 35.9939 27.5677 36.0745 27.5677L37.4852 23.283C37.0419 22.8788 36.4373 22.6363 35.8327 22.6363Z" fill="#17A45E"/>
<path d="M37.4849 20.9788C37.4849 21.4235 37.6058 21.8681 37.8073 22.2319L38.9359 18.7152C38.0895 19.1194 37.4849 19.9683 37.4849 20.9788Z" fill="#17A45E"/>
<path d="M33.334 33.4288C33.334 33.9138 33.4952 34.3989 33.737 34.8031L34.9462 31.1247C34.0192 31.4481 33.334 32.3374 33.334 33.4288Z" fill="#17A45E"/>
<path d="M46.5544 25.1422C46.5544 23.7679 45.4258 22.6765 44.0957 22.6765C43.8135 22.6765 43.5314 22.7169 43.2896 22.7978L44.8212 27.5271C45.8288 27.2038 46.5544 26.2741 46.5544 25.1422Z" fill="#17A45E"/>
<path d="M31.6813 35.086C30.3109 35.086 29.2227 36.2178 29.2227 37.5517C29.2227 38.8856 30.3512 40.0174 31.6813 40.0174C31.8022 40.0174 31.9232 40.0174 32.0441 39.977L33.4145 35.7327C32.9711 35.3285 32.3665 35.086 31.6813 35.086Z" fill="#17A45E"/>
<path d="M56.4694 48.304C57.8273 48.304 58.9281 47.2001 58.9281 45.8383C58.9281 44.4765 57.8273 43.3726 56.4694 43.3726C55.1115 43.3726 54.0107 44.4765 54.0107 45.8383C54.0107 47.2001 55.1115 48.304 56.4694 48.304Z" fill="#17A45E"/>
<path d="M44.0554 47.4955C42.6849 47.4955 41.5967 48.6274 41.5967 49.9613C41.5967 51.3356 42.7253 52.427 44.0554 52.427C45.4258 52.427 46.514 51.2952 46.514 49.9613C46.5543 48.5869 45.4258 47.4955 44.0554 47.4955Z" fill="#17A45E"/>
<path d="M50.6652 37.5517C50.6652 36.1774 49.5367 35.086 48.2066 35.086C47.8841 35.086 47.602 35.1668 47.3198 35.2477L48.8515 39.977C49.8994 39.6941 50.6652 38.724 50.6652 37.5517Z" fill="#17A45E"/>
<path d="M33.334 41.6749C33.334 43.0492 34.4626 44.1406 35.7927 44.1406C37.1631 44.1406 38.2513 43.0088 38.2513 41.6749H33.334Z" fill="#17A45E"/>
<path d="M41.5967 16.8561C41.5967 18.2304 42.7253 19.3218 44.0554 19.3218C45.4258 19.3218 46.514 18.19 46.514 16.8561C46.514 15.4817 45.3855 14.3904 44.0554 14.3904C42.6849 14.3904 41.5967 15.4817 41.5967 16.8561Z" fill="#17A45E"/>
<path d="M52.3176 44.1404C53.6754 44.1404 54.7762 43.0365 54.7762 41.6747C54.7762 40.3129 53.6754 39.209 52.3176 39.209C50.9597 39.209 49.8589 40.3129 49.8589 41.6747C49.8589 43.0365 50.9597 44.1404 52.3176 44.1404Z" fill="#17A45E"/>
<path d="M48.6 31.6977C49.9404 31.4796 50.8506 30.213 50.6331 28.8688C50.4155 27.5246 49.1526 26.6117 47.8122 26.8299C46.4718 27.0481 45.5616 28.3146 45.7791 29.6588C45.9967 31.0031 47.2596 31.9159 48.6 31.6977Z" fill="#17A45E"/>
<path d="M33.334 16.8561C33.334 18.2304 34.4626 19.3218 35.7927 19.3218C37.1631 19.3218 38.2513 18.19 38.2513 16.8561C38.2513 15.4817 37.1228 14.3904 35.7927 14.3904C34.4626 14.3904 33.334 15.4817 33.334 16.8561Z" fill="#17A45E"/>
<path d="M27.5695 44.1404C28.9274 44.1404 30.0282 43.0365 30.0282 41.6747C30.0282 40.3129 28.9274 39.209 27.5695 39.209C26.2116 39.209 25.1108 40.3129 25.1108 41.6747C25.1108 43.0365 26.2116 44.1404 27.5695 44.1404Z" fill="#17A45E"/>
<path d="M56.4694 40.0174C57.8273 40.0174 58.9281 38.9135 58.9281 37.5517C58.9281 36.1899 57.8273 35.086 56.4694 35.086C55.1115 35.086 54.0107 36.1899 54.0107 37.5517C54.0107 38.9135 55.1115 40.0174 56.4694 40.0174Z" fill="#17A45E"/>
<path d="M31.6813 31.7309C33.0392 31.7309 34.14 30.627 34.14 29.2652C34.14 27.9034 33.0392 26.7995 31.6813 26.7995C30.3234 26.7995 29.2227 27.9034 29.2227 29.2652C29.2227 30.627 30.3234 31.7309 31.6813 31.7309Z" fill="#17A45E"/>
<path d="M49.8589 33.429C49.8589 34.8033 50.9875 35.8947 52.3176 35.8947C53.688 35.8947 54.7762 34.7629 54.7762 33.429C54.7762 32.0546 53.6477 30.9632 52.3176 30.9632C50.9472 30.9228 49.8589 32.0546 49.8589 33.429Z" fill="#17A45E"/>
<path d="M39.9435 15.1984C41.3014 15.1984 42.4022 14.0945 42.4022 12.7327C42.4022 11.3709 41.3014 10.267 39.9435 10.267C38.5857 10.267 37.4849 11.3709 37.4849 12.7327C37.4849 14.0945 38.5857 15.1984 39.9435 15.1984Z" fill="#17A45E"/>
<path d="M48.2067 15.1984C49.5646 15.1984 50.6654 14.0945 50.6654 12.7327C50.6654 11.3709 49.5646 10.267 48.2067 10.267C46.8488 10.267 45.748 11.3709 45.748 12.7327C45.748 14.0945 46.8488 15.1984 48.2067 15.1984Z" fill="#17A45E"/>
<path d="M48.2067 48.304C49.5646 48.304 50.6654 47.2001 50.6654 45.8383C50.6654 44.4765 49.5646 43.3726 48.2067 43.3726C46.8488 43.3726 45.748 44.4765 45.748 45.8383C45.748 47.2001 46.8488 48.304 48.2067 48.304Z" fill="#17A45E"/>
<path d="M64.6916 64.8771C66.0495 64.8771 67.1503 63.7732 67.1503 62.4114C67.1503 61.0496 66.0495 59.9457 64.6916 59.9457C63.3337 59.9457 62.2329 61.0496 62.2329 62.4114C62.2329 63.7732 63.3337 64.8771 64.6916 64.8771Z" fill="#17A45E"/>
<path d="M72.0682 68.3533C71.7054 68.4745 71.383 68.7171 71.1411 69H72.2697L72.0682 68.3533Z" fill="#17A45E"/>
<path d="M60.9755 60.6818C62.3158 60.4637 63.2261 59.1971 63.0085 57.8529C62.791 56.5087 61.5281 55.5958 60.1877 55.814C58.8473 56.0321 57.9371 57.2987 58.1546 58.6429C58.3722 59.9871 59.6351 60.9 60.9755 60.6818Z" fill="#17A45E"/>
<path d="M54.8168 49.9613C54.8168 48.5869 53.6882 47.4955 52.3581 47.4955C50.9877 47.4955 49.8994 48.6274 49.8994 49.9613C49.8994 51.3356 51.028 52.427 52.3581 52.427C53.6882 52.4674 54.8168 51.3356 54.8168 49.9613Z" fill="#17A45E"/>
<path d="M56.4694 56.5906C57.8273 56.5906 58.9281 55.4866 58.9281 54.1248C58.9281 52.763 57.8273 51.6591 56.4694 51.6591C55.1115 51.6591 54.0107 52.763 54.0107 54.1248C54.0107 55.4866 55.1115 56.5906 56.4694 56.5906Z" fill="#17A45E"/>
<path d="M53.9707 20.9788C53.9707 22.3532 55.0993 23.4446 56.4294 23.4446C56.5906 23.4446 56.7921 23.4446 56.9534 23.4041L55.3814 18.7152C54.5753 19.1598 53.9707 20.0087 53.9707 20.9788Z" fill="#17A45E"/>
<path d="M58.4448 27.8102L58.9285 29.2654C58.9285 28.6995 58.727 28.2144 58.4448 27.8102Z" fill="#17A45E"/>
<path d="M78.9999 46.9703V44.7067C78.8387 45.03 78.7178 45.4343 78.7178 45.8385C78.7178 46.2427 78.8387 46.6065 78.9999 46.9703Z" fill="#17A45E"/>
<path d="M50.6654 4.44657C50.6654 3.79982 50.4236 3.23392 50.0205 2.78928L50.6654 4.6891C50.6654 4.60826 50.6654 4.52741 50.6654 4.44657Z" fill="#17A45E"/>
<path d="M54.8172 16.8561C54.8172 16.2497 54.6157 15.6838 54.2529 15.2796L54.8172 16.9773C54.8172 16.9369 54.8172 16.8965 54.8172 16.8561Z" fill="#17A45E"/>
<path d="M62.6768 40.3408L63.0798 41.513C62.9992 41.0684 62.8783 40.6641 62.6768 40.3408Z" fill="#17A45E"/>
<path d="M72.9543 51.6184C71.6645 51.6184 70.5762 52.629 70.4956 53.8821H75.413C75.3323 52.629 74.2844 51.6184 72.9543 51.6184Z" fill="#17A45E"/>
<path d="M66.3447 58.2478C66.3447 59.6221 67.4733 60.7135 68.8034 60.7135C69.0452 60.7135 69.2468 60.6731 69.4483 60.6327L67.8764 55.9437C66.9896 56.3075 66.3447 57.1968 66.3447 58.2478Z" fill="#17A45E"/>
<path d="M77.1062 47.4955C75.7357 47.4955 74.6475 48.6274 74.6475 49.9613C74.6475 51.3356 75.776 52.427 77.1062 52.427C77.872 52.427 78.5572 52.0632 79.0409 51.4973V48.3848C78.5572 47.8593 77.872 47.4955 77.1062 47.4955Z" fill="#17A45E"/>
<path d="M78.9999 53.9225V52.9928C78.8387 53.2758 78.7581 53.5991 78.7178 53.9225H78.9999Z" fill="#17A45E"/>
<path d="M23.4179 26.7995C23.0551 26.7995 22.773 26.8803 22.7327 26.8803L21.4429 30.7608C21.8862 31.3671 22.6117 31.7713 23.4179 31.7713C24.7883 31.7713 25.8765 30.6395 25.8765 29.3056C25.9169 27.8909 24.7883 26.7995 23.4179 26.7995Z" fill="#17A45E"/>
<path d="M64.6917 68.1916C63.9662 68.1916 63.3213 68.5149 62.8779 69H66.5055C66.0621 68.5149 65.4172 68.1916 64.6917 68.1916Z" fill="#17A45E"/>
<path d="M48.2067 51.6184C46.9169 51.6184 45.8287 52.629 45.748 53.8821H50.6654C50.5445 52.629 49.4965 51.6184 48.2067 51.6184Z" fill="#17A45E"/>
<path d="M58.9276 62.4114C58.9276 61.0371 57.799 59.9457 56.4689 59.9457C56.0658 59.9457 55.6628 60.0265 55.3403 60.2286L56.8317 64.8771C58.0005 64.675 58.9276 63.6241 58.9276 62.4114Z" fill="#17A45E"/>
<path d="M39.9435 51.6184C38.6537 51.6184 37.5655 52.629 37.4849 53.8821H42.4022C42.3216 52.629 41.2333 51.6184 39.9435 51.6184Z" fill="#17A45E"/>
<path d="M17.655 45.8385C17.655 45.1917 17.3729 44.5854 16.9698 44.1407L15.5591 48.3042C16.7683 48.1021 17.655 47.0915 17.655 45.8385Z" fill="#17A45E"/>
<path d="M23.4186 51.6184C22.1288 51.6184 21.0406 52.629 20.96 53.8821H25.8773C25.7967 52.629 24.7487 51.6184 23.4186 51.6184Z" fill="#17A45E"/>
<path d="M19.3073 44.1809C20.6777 44.1809 21.766 43.0491 21.766 41.7151C21.766 40.3812 20.6777 39.209 19.3073 39.209C19.0655 39.209 18.8236 39.2494 18.5818 39.3303L17.292 43.1703C17.7354 43.7767 18.4609 44.1809 19.3073 44.1809Z" fill="#17A45E"/>
<path d="M15.1959 51.6184C14.9138 51.6184 14.6719 51.6589 14.4301 51.7397L13.7046 53.8821H17.6949C17.5337 52.629 16.4857 51.6184 15.1959 51.6184Z" fill="#17A45E"/>
<path d="M64.6916 56.5906C66.0495 56.5906 67.1503 55.4866 67.1503 54.1248C67.1503 52.763 66.0495 51.6591 64.6916 51.6591C63.3337 51.6591 62.2329 52.763 62.2329 54.1248C62.2329 55.4866 63.3337 56.5906 64.6916 56.5906Z" fill="#17A45E"/>
<path d="M72.9543 48.304C74.3122 48.304 75.413 47.2001 75.413 45.8383C75.413 44.4765 74.3122 43.3726 72.9543 43.3726C71.5964 43.3726 70.4956 44.4765 70.4956 45.8383C70.4956 47.2001 71.5964 48.304 72.9543 48.304Z" fill="#17A45E"/>
<path d="M70.2138 68.5958C70.6572 68.2725 71.02 67.8278 71.1812 67.2619C71.2618 67.0194 71.3021 66.7769 71.3021 66.5343C71.3021 65.16 70.1735 64.0686 68.8434 64.0686C67.473 64.0686 66.3848 65.2004 66.3848 66.5343C66.3848 66.7769 66.4251 67.0194 66.5057 67.2619C66.6669 67.7874 67.0297 68.2725 67.473 68.5958C67.5536 68.6363 67.5939 68.6767 67.6746 68.7171C67.9164 68.8384 68.2388 68.9596 68.521 69.0001H69.1659C69.4883 68.9596 69.7705 68.8788 70.0123 68.7171C70.0929 68.6767 70.1735 68.6363 70.2138 68.5958Z" fill="#17A45E"/>
<path d="M66.3447 49.9613C66.3447 51.3356 67.4733 52.427 68.8034 52.427C70.1738 52.427 71.2621 51.2952 71.2621 49.9613C71.2621 48.5869 70.1335 47.4955 68.8034 47.4955C67.4733 47.4955 66.3447 48.5869 66.3447 49.9613Z" fill="#17A45E"/>
<path d="M64.6916 48.304C66.0495 48.304 67.1503 47.2001 67.1503 45.8383C67.1503 44.4765 66.0495 43.3726 64.6916 43.3726C63.3337 43.3726 62.2329 44.4765 62.2329 45.8383C62.2329 47.2001 63.3337 48.304 64.6916 48.304Z" fill="#17A45E"/>
<path d="M58.0815 68.7981L58.1621 69.0002H58.2831C58.2025 68.9194 58.1622 68.8385 58.0815 68.7981Z" fill="#17A45E"/>
<path d="M61.9507 68.5958C62.394 68.2725 62.7568 67.8278 62.918 67.2619C62.9986 67.0194 63.0389 66.7769 63.0389 66.5343C63.0389 65.16 61.9104 64.0686 60.5803 64.0686C59.2098 64.0686 58.1216 65.2004 58.1216 66.5343C58.1216 66.7769 58.1619 67.0194 58.2425 67.2619C58.4037 67.7874 58.7665 68.2725 59.2098 68.5958C59.2905 68.6363 59.3308 68.6767 59.4114 68.7171C59.6532 68.8384 59.9757 68.9596 60.2578 69.0001H60.9027C61.2252 68.9596 61.5073 68.8788 61.7491 68.7171C61.8297 68.6767 61.9104 68.6363 61.9507 68.5958Z" fill="#17A45E"/>
<path d="M31.6813 51.6184C30.3915 51.6184 29.3033 52.629 29.2227 53.8821H34.14C34.0594 52.629 32.9711 51.6184 31.6813 51.6184Z" fill="#17A45E"/>
<path d="M56.4694 26.7995C55.099 26.7995 54.0107 27.9313 54.0107 29.2652C54.0107 30.5991 55.1393 31.7309 56.4694 31.7309C57.8398 31.7309 58.9281 30.5991 58.9281 29.2652C58.9281 29.2652 58.9281 29.2652 58.9281 29.2248L58.4444 27.7696C58.001 27.2037 57.2755 26.7995 56.4694 26.7995Z" fill="#17A45E"/>
<path d="M58.1216 33.4288C58.1216 34.8031 59.2502 35.8945 60.5803 35.8945C60.7818 35.8945 60.943 35.8541 61.1445 35.8137L59.5726 31.1247C58.7262 31.5289 58.1216 32.4182 58.1216 33.4288Z" fill="#17A45E"/>
<path d="M21.7653 33.4287C21.7653 32.782 21.5235 32.1757 21.1204 31.7715L19.75 35.8541C20.9189 35.6519 21.7653 34.6414 21.7653 33.4287Z" fill="#17A45E"/>
<path d="M52.3176 14.3904C50.9472 14.3904 49.8589 15.5222 49.8589 16.8561C49.8589 18.2304 50.9875 19.3218 52.3176 19.3218C53.6477 19.3218 54.7359 18.2708 54.7762 16.9369L54.2119 15.2392C53.7686 14.7137 53.0834 14.3904 52.3176 14.3904Z" fill="#17A45E"/>
<path d="M77.1057 44.181C77.8715 44.181 78.5567 43.8172 79.0404 43.2513V41.6749H74.647C74.6067 43.0492 75.7353 44.181 77.1057 44.181Z" fill="#17A45E"/>
<path d="M49.8589 8.56954C49.8589 9.94388 50.9875 11.0353 52.3176 11.0353C52.4788 11.0353 52.64 11.0353 52.8012 10.9948L51.2293 6.34634C50.4232 6.75056 49.8589 7.59942 49.8589 8.56954Z" fill="#17A45E"/>
<path d="M60.5803 39.209C59.2098 39.209 58.1216 40.3408 58.1216 41.6747C58.1216 43.0086 59.2502 44.1404 60.5803 44.1404C61.9507 44.1404 63.0389 43.0086 63.0389 41.6747C63.0389 41.5939 63.0389 41.5534 63.0389 41.4726L62.6359 40.3004C62.2328 39.6536 61.467 39.209 60.5803 39.209Z" fill="#17A45E"/>
<path d="M68.8437 44.1812C70.2141 44.1812 71.3024 43.0494 71.3024 41.7155H66.3447C66.3447 43.0494 67.4733 44.1812 68.8437 44.1812Z" fill="#17A45E"/>
<path d="M30.0287 8.56933C30.0287 7.963 29.8272 7.39709 29.4241 6.95245L28.0537 10.9946C29.2226 10.7521 30.0287 9.78198 30.0287 8.56933Z" fill="#17A45E"/>
<path d="M25.9172 20.979C25.9172 20.3323 25.6753 19.7664 25.3126 19.3217L23.9019 23.4448C25.0707 23.2022 25.9172 22.1917 25.9172 20.979Z" fill="#17A45E"/>
<path d="M27.5695 19.3218C28.9399 19.3218 30.0281 18.19 30.0281 16.8561C30.0281 15.4817 28.8996 14.3904 27.5695 14.3904C27.3679 14.3904 27.1261 14.4308 26.9649 14.4712L25.6348 18.3921C26.0781 18.958 26.7633 19.3218 27.5695 19.3218Z" fill="#17A45E"/>
<path d="M48.2067 1.94022C46.8363 1.94022 45.748 3.07203 45.748 4.40595C45.748 5.73986 46.8766 6.87168 48.2067 6.87168C49.4965 6.87168 50.5445 5.86113 50.6654 4.60805L50.0205 2.70823C49.5771 2.26359 48.9322 1.94022 48.2067 1.94022Z" fill="#17A45E"/>
<path d="M41.5967 0.282953C41.5967 1.65729 42.7253 2.74868 44.0554 2.74868C45.4258 2.74868 46.514 1.61687 46.514 0.282953C46.514 0.161687 46.514 0.0808436 46.514 0H41.5967C41.5967 0.0808436 41.5967 0.202109 41.5967 0.282953Z" fill="#17A45E"/>
<path d="M31.681 6.9121C33.0514 6.9121 34.1397 5.78029 34.1397 4.44637C34.1397 3.11245 33.0514 1.94022 31.681 1.94022C31.4795 1.94022 31.2779 1.98064 31.1167 2.02106L29.7866 6.02282C30.23 6.58872 30.9152 6.9121 31.681 6.9121Z" fill="#17A45E"/>
<path d="M33.334 0.282953C33.334 1.65729 34.4626 2.74868 35.7927 2.74868C37.1631 2.74868 38.2513 1.61687 38.2513 0.282953C38.2513 0.161687 38.2513 0.0808436 38.2513 0H33.3743C33.334 0.0808436 33.334 0.202109 33.334 0.282953Z" fill="#17A45E"/>
<path d="M8.58496 69H22.7727L26.6421 56.833H12.6962L8.58496 69Z" fill="#17A45E"/>
<path d="M14.8327 41.6749H0V53.9227H10.7214L14.8327 41.6749Z" fill="#17A45E"/>
</g>
<defs>
<clipPath id="clip0">
<rect width="79" height="69" fill="white"/>
</clipPath>
</defs>
</svg>
