<svg width="20" height="19" viewBox="0 0 20 19" fill="none" xmlns="http://www.w3.org/2000/svg">
<path d="M10.311 1.71175C12.839 1.71175 13.1384 1.7214 14.1367 1.76711C15.0598 1.80938 15.5611 1.96414 15.8948 2.0942C16.3367 2.26654 16.6521 2.47244 16.9834 2.80486C17.3147 3.13727 17.5198 3.45377 17.6916 3.89717C17.8212 4.23196 17.9755 4.73498 18.0176 5.66118C18.0631 6.66296 18.0728 6.9634 18.0728 9.50002C18.0728 12.0366 18.0631 12.3371 18.0176 13.3388C17.9755 14.2651 17.8212 14.7681 17.6916 15.1029C17.5198 15.5463 17.3147 15.8628 16.9834 16.1952C16.6521 16.5276 16.3367 16.7335 15.8948 16.9058C15.5611 17.0359 15.0598 17.1907 14.1367 17.2329C13.1385 17.2786 12.8391 17.2883 10.311 17.2883C7.7828 17.2883 7.48339 17.2786 6.48521 17.2329C5.56211 17.1907 5.0608 17.0359 4.72719 16.9058C4.28526 16.7335 3.96983 16.5276 3.63855 16.1952C3.30726 15.8628 3.10206 15.5463 2.93035 15.1029C2.80069 14.7681 2.64645 14.2651 2.60432 13.3389C2.55877 12.3371 2.54915 12.0366 2.54915 9.50002C2.54915 6.9634 2.55877 6.66296 2.60432 5.66122C2.64645 4.73498 2.80069 4.23196 2.93035 3.89717C3.10206 3.45377 3.30726 3.13727 3.63855 2.80486C3.96983 2.47244 4.28526 2.26654 4.72719 2.0942C5.0608 1.96414 5.56211 1.80938 6.48517 1.76711C7.48354 1.7214 7.78296 1.71175 10.311 1.71175ZM10.311 0C7.73966 0 7.41728 0.010936 6.40745 0.0571688C5.39968 0.103326 4.71148 0.263897 4.10923 0.498757C3.48664 0.741536 2.95865 1.06637 2.43231 1.5945C1.90597 2.12264 1.58224 2.65243 1.34029 3.27714C1.10622 3.88145 0.946199 4.572 0.900199 5.5832C0.854123 6.59644 0.843262 6.91996 0.843262 9.50002C0.843262 12.0801 0.854123 12.4036 0.900199 13.4168C0.946199 14.428 1.10622 15.1186 1.34029 15.7229C1.58224 16.3476 1.90597 16.8774 2.43231 17.4055C2.95865 17.9337 3.48664 18.2585 4.10923 18.5013C4.71148 18.7361 5.39968 18.8967 6.40745 18.9429C7.41728 18.9891 7.73966 19 10.311 19C12.8823 19 13.2047 18.9891 14.2145 18.9429C15.2222 18.8967 15.9104 18.7361 16.5127 18.5013C17.1353 18.2585 17.6633 17.9337 18.1896 17.4055C18.7159 16.8774 19.0397 16.3476 19.2816 15.7229C19.5157 15.1186 19.6757 14.428 19.7217 13.4168C19.7678 12.4036 19.7787 12.0801 19.7787 9.50002C19.7787 6.91996 19.7678 6.59644 19.7217 5.5832C19.6757 4.572 19.5157 3.88145 19.2816 3.27714C19.0397 2.65243 18.7159 2.12264 18.1896 1.5945C17.6633 1.06637 17.1353 0.741536 16.5127 0.498757C15.9104 0.263897 15.2222 0.103326 14.2145 0.0571688C13.2047 0.010936 12.8823 0 10.311 0ZM10.311 4.62162C7.62586 4.62162 5.44914 6.80577 5.44914 9.50002C5.44914 12.1943 7.62586 14.3784 10.311 14.3784C12.996 14.3784 15.1728 12.1943 15.1728 9.50002C15.1728 6.80577 12.996 4.62162 10.311 4.62162ZM10.311 12.6667C8.56801 12.6667 7.15503 11.2489 7.15503 9.50002C7.15503 7.75113 8.56801 6.33333 10.311 6.33333C12.0539 6.33333 13.4669 7.75113 13.4669 9.50002C13.4669 11.2489 12.0539 12.6667 10.311 12.6667ZM16.501 4.42889C16.501 5.0585 15.9923 5.56891 15.3649 5.56891C14.7374 5.56891 14.2287 5.0585 14.2287 4.42889C14.2287 3.79928 14.7374 3.2889 15.3649 3.2889C15.9923 3.2889 16.501 3.79928 16.501 4.42889Z" fill="black"/>
</svg>
