<svg width="21" height="17" viewBox="0 0 21 17" fill="none" xmlns="http://www.w3.org/2000/svg">
<path d="M20.9823 2.01189C20.2108 2.35427 19.3838 2.58416 18.5145 2.6885C19.4018 2.157 20.0836 1.31572 20.4033 0.314664C19.5747 0.805409 18.6531 1.16246 17.6761 1.35485C16.8931 0.520092 15.7775 0 14.5427 0C12.1711 0 10.2481 1.92059 10.2481 4.29117C10.2481 4.62703 10.2872 4.95473 10.3606 5.2694C6.79177 5.09005 3.62907 3.38141 1.51028 0.784214C1.14002 1.42006 0.92961 2.157 0.92961 2.94284C0.92961 4.43138 1.68644 5.74547 2.83962 6.51664C2.13499 6.49381 1.47276 6.2998 0.893725 5.97861C0.893725 5.99655 0.893725 6.01448 0.893725 6.03242C0.893725 8.11278 2.37476 9.84588 4.33697 10.2421C3.97813 10.3399 3.59808 10.3921 3.20662 10.3921C2.92933 10.3921 2.6602 10.366 2.3976 10.3138C2.94564 12.0176 4.53107 13.2615 6.40846 13.2958C4.94047 14.4468 3.08918 15.1316 1.07641 15.1316C0.728985 15.1316 0.388086 15.112 0.0537109 15.0713C1.95231 16.2908 4.20974 17 6.63518 17C14.5329 17 18.8521 10.4605 18.8521 4.79006C18.8521 4.6042 18.8472 4.41671 18.8407 4.2341C19.6791 3.62923 20.4065 2.87273 20.9823 2.01189Z" fill="black"/>
</svg>
